<svg width="74" height="24" viewBox="0 0 74 24" fill="none" xmlns="http://www.w3.org/2000/svg">
<path d="M21.0441 7.11831H19.1451C17.5498 7.11831 16.4039 7.53031 15.7085 8.3543C15.01 9.18031 14.6638 10.4821 14.6638 12.2586V20.1787C14.6638 20.288 14.7053 20.3831 14.7873 20.4672C14.8713 20.5481 14.9665 20.5927 15.0748 20.5927H16.3685C16.4778 20.5927 16.5739 20.5481 16.6559 20.4672C16.741 20.3831 16.7825 20.288 16.7825 20.1787V12.2586C16.7825 11.3051 16.9353 10.5641 17.2481 10.0306C17.5599 9.50019 18.1916 9.23497 19.1451 9.23497H21.0441C21.0978 9.19954 21.1606 9.15197 21.2365 9.09731C21.3812 8.98697 21.4541 8.88675 21.4541 8.79463V7.5303C21.4541 7.41997 21.4136 7.3238 21.3306 7.24079C21.2486 7.15779 21.1525 7.1173 21.0441 7.1173" fill="#004C97"/>
<path d="M27.6138 18.473H27.2838C26.5884 18.473 26.0752 18.2553 25.7431 17.813C25.4131 17.3737 25.2481 16.5851 25.2481 15.4483V7.5303C25.2481 7.41997 25.2086 7.3238 25.1246 7.24079C25.0416 7.15779 24.9475 7.1173 24.8371 7.1173H23.5424C23.4341 7.1173 23.338 7.15779 23.256 7.24079C23.1719 7.3238 23.1304 7.41895 23.1304 7.5303V15.4483C23.1304 16.3462 23.2043 17.1165 23.3521 17.7593C23.4989 18.4001 23.7469 18.9295 24.0941 19.3537C24.4413 19.7748 24.9009 20.0876 25.4688 20.288C26.0377 20.4894 26.7513 20.5927 27.6138 20.5927C27.7231 20.5927 27.8213 20.5481 27.9033 20.4672C27.9863 20.3831 28.0278 20.288 28.0278 20.1787V18.886C28.0278 18.7757 27.9863 18.6785 27.9033 18.5955C27.8213 18.5135 27.7241 18.472 27.6138 18.472" fill="#004C97"/>
<path d="M26.5236 2.37986C26.5236 1.06593 25.4577 0 24.1437 0C22.8298 0 21.7639 1.06593 21.7639 2.37986C21.7639 3.69379 22.8288 4.76072 24.1437 4.76072C25.4587 4.76072 26.5236 3.69379 26.5236 2.37986Z" fill="#004C97"/>
<path d="M61.4076 18.473H61.0755C60.3791 18.473 59.8669 18.2553 59.5369 17.813C59.2069 17.3737 59.0429 16.5851 59.0429 15.4483V2.77363C59.0429 2.66431 59.0004 2.56814 58.9194 2.48513C58.8364 2.40213 58.7392 2.36366 58.6289 2.36366H57.3362C57.2289 2.36366 57.1297 2.40213 57.0487 2.48513C56.9657 2.56814 56.9262 2.66431 56.9262 2.77363V15.4483C56.9262 16.2743 56.9971 17.0082 57.1439 17.647C57.2906 18.2888 57.5386 18.8273 57.8869 19.2565C58.2341 19.6877 58.6936 20.0177 59.2615 20.2465C59.8284 20.4753 60.5451 20.5927 61.4065 20.5927C61.5149 20.5927 61.613 20.5481 61.695 20.4672C61.777 20.3831 61.8165 20.288 61.8165 20.1787V18.886C61.8165 18.7757 61.777 18.6785 61.695 18.5955C61.613 18.5135 61.5149 18.472 61.4065 18.472" fill="#004C97"/>
<path d="M39.589 8.21663C38.5879 7.39264 37.1737 6.97963 35.3405 6.97963C33.5073 6.97963 32.1387 7.29141 31.34 7.91294C30.5423 8.5365 30.1445 9.49007 30.1445 10.7736C30.1445 10.9032 30.186 11.0075 30.268 11.0905C30.35 11.1725 30.4482 11.214 30.5575 11.214H31.8492C31.9595 11.214 32.0547 11.1725 32.1387 11.0905C32.2217 11.0065 32.2632 10.9032 32.2632 10.7736C32.2632 10.0792 32.5102 9.6247 33.0042 9.41212C33.4982 9.20258 34.2776 9.09731 35.3415 9.09731C36.5522 9.09731 37.4582 9.31191 38.0645 9.74212C38.6688 10.1734 38.9695 10.7372 38.9695 11.4336V13.0826C38.514 12.6797 37.9491 12.3862 37.281 12.204C36.6119 12.0208 35.9286 11.9286 35.2332 11.9286C34.1349 11.9286 33.2066 12.0208 32.4545 12.204C31.7034 12.3872 31.0991 12.6585 30.6405 13.0148C30.1819 13.3731 29.853 13.8186 29.6505 14.349C29.4491 14.8814 29.3488 15.502 29.3488 16.2187C29.3488 17.0426 29.445 17.7452 29.6363 18.3211C29.8297 18.8992 30.1536 19.3678 30.6122 19.7262C31.0717 20.0815 31.6771 20.3437 32.4282 20.5087C33.1793 20.6747 34.1146 20.7557 35.2332 20.7557C36.2941 20.7557 37.199 20.6585 37.94 20.4682C38.684 20.2758 39.2863 19.9641 39.755 19.5328C40.2237 19.1016 40.5628 18.5519 40.7724 17.8828C40.9839 17.2137 41.0902 16.4029 41.0902 15.4493V11.4346C41.0902 10.1157 40.5901 9.04366 39.591 8.21764M38.8045 17.1672C38.6962 17.5073 38.4978 17.7867 38.2133 18.0053C37.9309 18.225 37.5442 18.3859 37.0593 18.4872C36.5745 18.5894 35.9641 18.638 35.2312 18.638C34.4588 18.638 33.8322 18.5823 33.3463 18.472C32.8604 18.3616 32.4747 18.2068 32.1913 18.0053C31.9069 17.8029 31.7155 17.5508 31.6153 17.2491C31.5141 16.9465 31.4635 16.6013 31.4635 16.2176C31.4635 15.8694 31.5222 15.5485 31.6416 15.255C31.7601 14.9624 31.9625 14.7083 32.246 14.4988C32.5304 14.2893 32.9151 14.1232 33.401 14.0028C33.8869 13.8843 34.4952 13.8246 35.2302 13.8246C36.6585 13.8246 37.6404 14.017 38.1698 14.4026C38.7033 14.7873 38.9665 15.3005 38.9665 15.9413C38.9665 16.4201 38.9128 16.826 38.8025 17.1661" fill="#004C97"/>
<path d="M73.5599 16.164H72.2956C72.0212 16.164 71.8815 16.3027 71.8815 16.576C71.8815 17.9334 70.6658 18.6107 68.2394 18.6107C66.8425 18.6107 65.8848 18.3201 65.3686 17.731C64.8351 17.1631 64.5507 16.0456 64.5112 14.3773C65.3048 14.9098 66.5448 15.174 68.2364 15.174C72.08 15.174 74.0002 13.8378 74.0002 11.1593C74.0002 8.48083 72.086 6.95331 68.2556 6.95331C66.2361 6.95331 64.7724 7.4392 63.8532 8.40997C62.8824 9.49108 62.3965 11.299 62.3965 13.8266C62.3965 16.3543 62.8561 18.2989 63.7712 19.3273C64.6154 20.2617 66.1086 20.7283 68.2556 20.7283C72.0658 20.7283 73.9729 19.3446 73.9729 16.576C73.9729 16.3027 73.8342 16.164 73.5599 16.164ZM64.6235 11.7636C64.6974 10.8121 65.0274 10.1238 65.6156 9.70163C66.1703 9.27952 67.0429 9.06896 68.2394 9.06896C70.6871 9.06896 71.9099 9.76541 71.9099 11.1593C71.9099 12.4257 70.6871 13.0573 68.2394 13.0573C65.7917 13.0573 64.5112 12.6251 64.6235 11.7636Z" fill="#004C97"/>
<path d="M54.4158 7.11831H53.1363C53.0219 7.11831 52.9237 7.15779 52.8417 7.24181C52.7587 7.32481 52.7172 7.41997 52.7172 7.53132V13.937C52.7172 14.6709 52.6716 15.3289 52.5795 15.918C52.4864 16.5031 52.3092 16.9971 52.042 17.401C51.7768 17.8039 51.3992 18.1116 50.9012 18.3211C50.4072 18.5327 49.7573 18.639 48.9495 18.639C48.1417 18.639 47.5212 18.5469 47.0262 18.3626C46.5322 18.1814 46.1455 17.896 45.8722 17.5123C45.5958 17.1277 45.4126 16.6317 45.3215 16.0273C45.2294 15.423 45.1838 14.6891 45.1838 13.8277V7.53132C45.1838 7.42098 45.1434 7.32481 45.0614 7.24181C44.9773 7.1588 44.8822 7.11831 44.7708 7.11831H43.5065C43.3759 7.11831 43.2727 7.15779 43.1907 7.24181C43.1087 7.32481 43.0672 7.41997 43.0672 7.53132V13.8277C43.0672 15.0738 43.1674 16.1336 43.3698 17.0011C43.5703 17.8727 43.9064 18.5904 44.3771 19.1482C44.8427 19.708 45.4511 20.1149 46.1951 20.373C46.9401 20.6291 47.8623 20.7567 48.9637 20.7567C51.0591 20.7567 52.5603 20.2121 53.4713 19.1219C54.3793 18.0306 54.8349 16.3037 54.8349 13.938V7.53233C54.8349 7.42199 54.7974 7.32583 54.7245 7.24282C54.6486 7.15981 54.5474 7.11932 54.4168 7.11932" fill="#004C97"/>
<path d="M3.80412 17.3311C4.06123 17.1034 4.37909 16.9343 4.75565 16.823C5.13121 16.7137 5.52296 16.6489 5.92685 16.6306C6.33278 16.6134 6.6891 16.6023 7.0029 16.6023C7.90382 16.6023 8.70757 16.5314 9.41414 16.3826C10.1227 16.2359 10.724 15.9798 11.221 15.6123C11.7171 15.2479 12.0987 14.7458 12.3659 14.1141C12.6322 13.4815 12.7668 12.6797 12.7668 11.709C12.7668 10.7382 12.623 9.94458 12.3386 9.32911C12.0541 8.71568 11.6543 8.23383 11.1411 7.88662C10.6258 7.5384 10.0063 7.29951 9.27849 7.17399C8.5537 7.04441 7.74895 6.98064 6.86827 6.98064C5.98759 6.98064 5.2375 7.04947 4.5117 7.18714C3.78387 7.32481 3.16132 7.5708 2.63798 7.93015C2.11261 8.28647 1.70061 8.77742 1.39794 9.39896C1.09325 10.0235 0.941406 10.8121 0.941406 11.7636C0.941406 12.6443 1.12463 13.4521 1.49208 14.184C1.85751 14.9159 2.45273 15.4939 3.27773 15.918C2.67442 16.0456 2.17436 16.3239 1.78058 16.7541C1.38579 17.1854 1.1884 17.6956 1.1884 18.2807C1.1884 18.7949 1.24914 19.2261 1.36656 19.5733C1.48702 19.9215 1.67429 20.2141 1.93141 20.454C2.18853 20.6909 2.5165 20.8873 2.92141 21.0442C3.3243 21.2001 3.8193 21.3327 4.40743 21.442C5.01176 21.5533 5.64747 21.6505 6.3186 21.7325C6.98772 21.8145 7.6052 21.9228 8.17309 22.0635C8.74199 22.2012 9.20865 22.3915 9.5761 22.6395C9.94254 22.8855 10.1015 23.1497 10.1237 23.6083C10.1308 23.7459 10.1329 23.7894 10.2422 23.9008C10.3262 23.9767 10.4416 24 10.5489 24H11.8942C12.0076 24 12.1078 23.9534 12.1928 23.8694C12.2819 23.7824 12.3244 23.6832 12.3244 23.5698C12.3244 22.5059 12.0946 21.8327 11.6381 21.2912C11.1795 20.7496 10.4011 20.371 9.30279 20.1493C8.51321 19.9833 7.76514 19.8608 7.06161 19.7788C6.35403 19.6948 5.73351 19.6007 5.19093 19.4893C4.64936 19.379 4.21915 19.2362 3.89826 19.0631C3.57838 18.89 3.41743 18.6279 3.41743 18.2786C3.41743 17.8757 3.547 17.5599 3.80412 17.3301V17.3311ZM3.29393 13.0907C3.13804 12.7253 3.06111 12.2718 3.06111 11.7242C3.06111 11.1219 3.16638 10.6481 3.37795 10.2999C3.58951 9.9547 3.86688 9.68847 4.20599 9.50626C4.5451 9.32506 4.94495 9.20967 5.40452 9.16614C5.41464 9.16411 5.42375 9.16614 5.43388 9.16412C5.44602 9.1631 5.45412 9.15905 5.46829 9.15804C5.92584 9.11249 6.40566 9.08921 6.90167 9.08921C7.43514 9.08921 7.93824 9.10945 8.40693 9.14387C8.87561 9.18031 9.28052 9.28458 9.62064 9.45869C9.96178 9.6328 10.227 9.897 10.4203 10.2533C10.6127 10.6086 10.7098 11.0955 10.7098 11.715C10.7098 12.3346 10.6167 12.8549 10.4345 13.2193C10.2503 13.5837 9.99215 13.8621 9.66012 14.0534C9.33012 14.2457 8.92926 14.3621 8.46058 14.4097C8.45248 14.4097 8.44337 14.4097 8.43527 14.4107C8.42211 14.4128 8.413 14.4158 8.39984 14.4168C7.93116 14.4634 7.41996 14.4846 6.86827 14.4846C6.22446 14.4846 5.66771 14.4431 5.20004 14.3611C4.72832 14.2812 4.33354 14.1384 4.01163 13.937C3.68973 13.7386 3.44982 13.4541 3.29393 13.0897V13.0907Z" fill="#004C97"/>
</svg>
